<!DOCTYPE svg PUBLIC "-//W3C//DTD SVG 20010904//EN" "http://www.w3.org/TR/2001/REC-SVG-20010904/DTD/svg10.dtd">
<svg version="1.0" xmlns="http://www.w3.org/2000/svg" width="32px" height="52px" viewBox="0 0 320 520" preserveAspectRatio="xMidYMid meet">
<g id="layer101" fill="#c70303" stroke="none">
<path d="M123 404 c-101 -95 -123 -121 -123 -144 0 -23 21 -48 121 -142 66 -62 130 -114 141 -116 25 -5 58 25 58 52 0 13 -35 56 -92 113 l-93 93 93 93 c83 83 92 96 92 130 0 36 -1 37 -37 37 -35 0 -49 -11 -160 -116z"/>
</g>
<g id="layer102" fill="#d12f2f" stroke="none">
<path d="M123 404 c-101 -95 -123 -121 -123 -144 0 -23 21 -48 121 -142 66 -62 130 -114 141 -116 25 -5 58 25 58 52 0 13 -35 56 -92 113 l-93 93 93 93 c83 83 92 96 92 130 0 36 -1 37 -37 37 -35 0 -49 -11 -160 -116z m169 89 c10 -9 18 -21 18 -27 0 -6 -44 -55 -97 -108 l-98 -98 100 -100 c83 -83 98 -103 89 -117 -30 -48 -38 -44 -171 89 l-128 128 125 125 c69 69 129 125 134 125 5 0 18 -7 28 -17z"/>
</g>
<g id="layer103" fill="#d84c4c" stroke="none">
<path d="M120 401 c-69 -65 -123 -121 -120 -124 3 -3 62 50 131 119 69 68 123 124 120 124 -4 0 -62 -53 -131 -119z"/>
<path d="M290 495 c13 -14 25 -25 27 -25 2 0 3 11 3 25 0 20 -5 25 -27 25 l-26 0 23 -25z"/>
<path d="M221 358 l-95 -98 97 -99 c53 -54 97 -96 97 -92 0 3 -42 47 -92 98 l-93 93 95 95 c52 52 92 96 89 97 -2 2 -46 -41 -98 -94z"/>
<path d="M0 243 c0 -12 234 -235 253 -242 7 -2 10 -2 7 0 -3 2 -63 60 -133 129 -70 69 -127 120 -127 113z"/>
<path d="M290 25 c-13 -14 -19 -25 -13 -25 12 0 48 38 41 45 -2 3 -15 -6 -28 -20z"/>
</g>
<g id="layer104" fill="#e07171" stroke="none">
<path d="M120 401 c-69 -65 -123 -121 -120 -124 4 -4 62 50 130 118 69 69 122 125 120 125 -3 0 -61 -53 -130 -119z"/>
<path d="M0 242 c0 -8 85 -91 195 -192 33 -30 4 3 -65 73 -69 70 -126 127 -127 127 -2 0 -3 -3 -3 -8z"/>
</g>
<g id="layer105" fill="#e27b7b" stroke="none">
<path d="M120 401 c-69 -65 -123 -120 -120 -122 3 -2 61 51 130 118 69 67 123 122 120 123 -3 0 -61 -53 -130 -119z"/>
<path d="M0 241 c0 -6 45 -51 193 -191 31 -30 57 -52 57 -48 0 3 -56 60 -125 126 -69 66 -125 117 -125 113z"/>
</g>
<g id="layer106" fill="#e89595" stroke="none">
<path d="M234 508 c-4 -7 -3 -8 4 -4 12 7 16 16 8 16 -3 0 -8 -5 -12 -12z"/>
<path d="M220 355 l-95 -95 100 -98 100 -97 -95 98 -95 97 95 95 c52 52 92 95 90 95 -3 0 -48 -43 -100 -95z"/>
<path d="M235 10 c3 -5 8 -10 11 -10 3 0 2 5 -1 10 -3 6 -8 10 -11 10 -3 0 -2 -4 1 -10z"/>
</g>
<g id="layer107" fill="#ecabab" stroke="none">
<path d="M295 500 c10 -11 20 -20 22 -20 1 0 3 9 3 20 0 14 -7 20 -22 20 -20 0 -21 -1 -3 -20z"/>
<path d="M294 18 l-19 -23 23 19 c12 11 22 21 22 23 0 8 -8 2 -26 -19z"/>
</g>
<g id="layer108" fill="#f6d7d7" stroke="none">
<path d="M75 358 l-80 -83 83 80 c45 44 82 81 82 82 0 8 -11 -3 -85 -79z"/>
<path d="M65 170 c38 -38 72 -70 74 -70 3 0 -26 32 -64 70 -38 39 -72 70 -74 70 -3 0 26 -31 64 -70z"/>
</g>
<g id="layer109" fill="#fef7f7" stroke="none">
<path d="M290 516 c0 -2 7 -9 15 -16 12 -10 15 -10 15 4 0 9 -7 16 -15 16 -8 0 -15 -2 -15 -4z"/>
</g>


</svg>