<!DOCTYPE svg PUBLIC "-//W3C//DTD SVG 20010904//EN" "http://www.w3.org/TR/2001/REC-SVG-20010904/DTD/svg10.dtd">
<svg version="1.0" xmlns="http://www.w3.org/2000/svg" width="32px" height="53px" viewBox="0 0 320 530" preserveAspectRatio="xMidYMid meet">
<g id="layer101" fill="#c70303" stroke="none">
<path d="M17 512 c-34 -38 -31 -43 119 -202 l42 -45 -89 -95 c-55 -58 -89 -102 -89 -116 0 -25 29 -54 56 -54 26 0 264 239 264 265 0 28 -238 265 -266 265 -12 0 -28 -8 -37 -18z"/>
</g>
<g id="layer102" fill="#d12f2f" stroke="none">
<path d="M17 512 c-34 -38 -31 -43 119 -202 l42 -45 -89 -95 c-55 -58 -89 -102 -89 -116 0 -25 29 -54 56 -54 26 0 264 239 264 265 0 28 -238 265 -266 265 -12 0 -28 -8 -37 -18z m170 -114 c68 -68 123 -127 123 -133 0 -12 -241 -255 -254 -255 -14 0 -46 31 -46 44 0 6 43 54 95 106 52 52 95 100 95 105 0 6 -43 53 -95 105 -52 52 -95 99 -95 104 0 13 31 46 44 46 6 0 66 -55 133 -122z"/>
</g>
<g id="layer103" fill="#d85050" stroke="none">
<path d="M15 510 c-27 -30 -12 -34 15 -5 13 14 19 25 13 25 -5 0 -18 -9 -28 -20z"/>
<path d="M189 403 c70 -71 128 -127 131 -125 5 3 -242 252 -250 252 -3 0 50 -57 119 -127z"/>
<path d="M189 128 c-69 -71 -122 -128 -119 -128 8 0 255 249 250 252 -3 2 -61 -54 -131 -124z"/>
<path d="M0 43 c0 -12 38 -48 45 -41 3 2 -6 15 -20 28 -14 13 -25 19 -25 13z"/>
</g>
<g id="layer104" fill="#e07171" stroke="none">
<path d="M31 425 c19 -22 59 -65 88 -97 29 -31 53 -59 53 -63 0 -4 -26 -35 -58 -69 -109 -114 -119 -132 -21 -36 53 52 97 99 97 105 0 6 -44 53 -97 105 -54 52 -82 77 -62 55z"/>
</g>
<g id="layer105" fill="#e27b7b" stroke="none">
<path d="M31 425 c19 -22 59 -65 88 -97 29 -31 53 -59 53 -63 0 -4 -26 -35 -58 -69 -106 -111 -119 -133 -20 -33 l97 98 -20 27 c-11 15 -55 61 -98 102 -43 41 -62 57 -42 35z"/>
</g>
<g id="layer106" fill="#e79191" stroke="none">
<path d="M190 405 c69 -69 127 -125 130 -125 2 0 -51 56 -120 125 -69 69 -127 125 -130 125 -2 0 51 -56 120 -125z"/>
<path d="M5 450 c3 -5 8 -10 11 -10 3 0 2 5 -1 10 -3 6 -8 10 -11 10 -3 0 -2 -4 1 -10z"/>
<path d="M190 123 l-125 -128 128 125 c70 69 127 126 127 127 0 8 -14 -6 -130 -124z"/>
<path d="M4 78 c-4 -7 -3 -8 4 -4 12 7 16 16 8 16 -3 0 -8 -5 -12 -12z"/>
</g>
<g id="layer107" fill="#eeb4b4" stroke="none">
<path d="M14 508 l-19 -23 23 19 c21 18 27 26 19 26 -2 0 -12 -10 -23 -22z"/>
<path d="M133 313 l47 -48 -48 -50 -47 -50 53 50 52 49 -47 48 c-26 26 -50 48 -52 48 -3 0 16 -21 42 -47z"/>
<path d="M15 20 c10 -11 20 -20 23 -20 3 0 -3 9 -13 20 -10 11 -20 20 -23 20 -3 0 3 -9 13 -20z"/>
</g>
<g id="layer108" fill="#f6d8d8" stroke="none">
<path d="M130 318 c41 -45 50 -53 50 -45 0 2 -21 23 -47 47 l-48 45 45 -47z"/>
<path d="M130 215 c-24 -25 -42 -45 -39 -45 3 0 25 20 49 45 24 25 42 45 39 45 -3 0 -25 -20 -49 -45z"/>
<path d="M59 143 c-13 -16 -12 -17 4 -4 9 7 17 15 17 17 0 8 -8 3 -21 -13z"/>
</g>


</svg>